<svg xmlns="http://www.w3.org/2000/svg" viewBox="0 0 704 704" fill="none"><mask id="a"><rect width="704" height="704" rx="0" ry="0" fill="#fff"/></mask><g mask="url(#a)"><g fill-rule="evenodd" clip-rule="evenodd"><path d="M-1.281 1074.02a2351.117 2351.117 0 0 0 11.084-68.46c1.594-10.86 3.149-21.73 4.547-32.618.979-7.628 2.47-16.351-2.72-22-7.303-7.952-13.937-14.758-14.831-26.149-.841-10.717 2.783-22.4 5.049-32.803 4.752-21.816 10.668-43.362 17.205-64.704 6.641-21.683 13.923-43.162 21.31-64.6 6.906-20.044 13.545-40.269 22.54-59.5 17.071-36.495 45.951-63.522 81.643-81.568 8.877-4.488 26.983-20.51 36.257-24.097 8.526-3.298 8.495 6.333 16.886 2.705 6.708-2.9 12.954-6.767 16.71-13.244 4.078-7.033 14.305-16.869 15.862-25.055 3.299-17.351-.275-32.12 12.109-45.179 10.994-11.597 25.771-19.542 41.061-23.807 33.636-9.381 78.494-2.822 98.788 28.433 9.693 14.926 13.08 32.968 26.159 45.149 11.421 10.636 8.865 17.908 23.657 23.39.838.311 23.546-4.56 24.384-4.248 16.182-3.463 31.648 6.23 46.494 11.856 22.133 8.384 43.205 19.298 63.002 32.269 39.92 26.155 74.11 60.118 102.296 98.551 28.42 38.75 50.471 82.182 66.172 127.576a492.842 492.842 0 0 1 10.26 33.455c1.69 6.307 3.497 12.849 1.438 19.305-1.684 5.283-5.43 9.216-9.829 12.385-5.963 4.297-17.924 7.09-17.69 15.732.177 6.57 2.406 13.485 3.494 19.978 1.295 7.732 2.36 15.51 3.423 23.276 4.84 35.352 8.607 70.902 10.273 106.552 1.64 35.1 3.001 70.92.566 106.01-.16 2.31-.85 4.44-1.964 6.23 1.04.4 1.12 2.34-.174 2.61-.906.19-1.81.39-2.716.58-1.882 1.42-4.229 2.29-6.93 2.38-1.83.06-3.66.14-5.49.23-19.3 4.04-38.599 7.85-58.152 10.74-23.768 3.5-47.606 6.36-71.518 8.69-49.135 4.78-97.883 3.19-147.083.62-49.124-2.58-98.219-3.18-147.394-1.9-49.218 1.28-98.418 3.42-147.647 4.3-54.999.98-109.914-.52-164.754-4.9-7.519-.59-12.171-6.58-10.688-14.04 8.885-44.75 18.954-89.19 26.911-134.13Z" fill="rgba(255, 219, 180, 1)"/><path d="m502.913 597.521-1.074-.414c-14.518-5.671-29.628-14.822-45.421-11.442-.558-.208-10.834 1.887-17.872 3.215l6.68 6.973 11.79 2.268c-40.673 67.128-88.778 100.692-144.314 100.692-55.537 0-97.678-33.564-126.425-100.692l-3.923-1.085c-.484.112-1 .271-1.552.485-9.274 3.587-27.379 19.608-36.256 24.096-35.692 18.047-64.572 45.073-81.643 81.569-8.695 18.59-15.189 38.108-21.85 57.494l-.69 2.005c-7.387 21.438-14.669 42.918-21.31 64.601C12.8 847.7 7.115 868.301 2.474 889.146l-.626 2.844c-2.266 10.403-5.89 22.085-5.049 32.803.318 4.058 1.365 7.534 2.912 10.687l80.446 28.947-38.326 261.393c35.107 1.51 70.246 1.9 105.419 1.27 49.229-.88 98.429-3.02 147.647-4.3 47.685-1.24 95.294-.71 142.928 1.67l12.097.62c46.613 2.33 92.858 3.52 139.452-1.01l3.175-.31v-38.24l-16.367-212.911 82.945-15.613 81.422-39.546c2.46-2.459 4.434-5.329 5.532-8.773 1.907-5.98.498-12.033-1.064-17.905l-.375-1.4a492.842 492.842 0 0 0-10.26-33.455c-15.7-45.394-37.751-88.827-66.171-127.576-28.187-38.433-62.377-72.396-102.296-98.552-19.797-12.97-40.869-23.884-63.002-32.268Z" fill="rgba(143, 167, 223, 1)"/><path d="M471.765 584.564c-5.086-.221-10.272.602-15.346 1.101-.442.043-.61.725-.112.829 9.08 1.897 18.062 4.492 26.98 7.128l3.819 1.13c10.057 2.975 19.819 6.044 29.555 10.012 19.404 7.908 37.833 18.582 54.794 30.845 65.312 47.221 112.582 118.715 142.412 192.736a525.982 525.982 0 0 1 20.525 61.653 554.65 554.65 0 0 1 3.83 15.347c.354 1.505 1.897 5.359 1.05 6.899-.747 1.361-3.655 2.202-5.006 2.91l-4.561 2.365c-8.897 4.585-23.717 12.123-25.203 12.857l-2.318 1.141c-37.91 18.585-78.418 34.345-121.079 35.436l-.334-3.643c-1.902-20.141-4.398-40.389-9.846-59.911-.293-1.049-1.628-.695-1.75.237-3.035 23.111-2.065 46.402-1.006 69.62 1.875 41.124 4.365 82.224 6.578 123.324 1.108 20.57 2.54 41.11 3.833 61.67 1.295 20.59 1.714 41.68 4.671 62.1.659 4.55 5.991 7.03 10.029 6.55 4.468-.53 7.905-4.47 7.926-8.98.054-11.9-1.441-23.94-2.272-35.8-.789-11.28-1.636-22.55-2.504-33.82-3.172-41.13-6.821-82.21-10.196-123.33-1.196-14.58-2.488-29.147-3.818-43.715 45.193-1.457 87.414-18.196 127.692-37.754.583 13.237 1.99 26.45 3.354 39.632 3.805 36.787 7.16 73.557 9.67 110.457 1.269 18.64 2.192 37.3 2.996 55.96a1708.912 1708.912 0 0 1 1.187 36.7l.137 7.01c.113 4.44.564 8.55 4.3 11.78 3.796 3.29 8.922 3.46 12.678 0 5.028-4.63 4.139-10.93 3.99-17.15a1718.048 1718.048 0 0 0-1.775-47.18c-1.886-36.64-5.655-73.13-10.58-109.47l-1.922-14.03c-3.59-26.08-7.532-52.754-15.558-77.877a1428.758 1428.758 0 0 0 9.345-4.691c5.506-2.788 11.199-5.404 16.55-8.481 4.247-2.441 7.909-5.789 9.09-10.73 1.319-5.505-.697-11.526-2.036-16.896l-.116-.472a502.049 502.049 0 0 0-4.22-16.153c-6.05-21.739-13.53-43.054-22.285-63.849-17.53-41.632-40.157-81.183-67.796-116.944-24.88-32.19-54.269-61.382-88.715-83.276-16.84-10.704-34.786-19.493-53.765-25.707-8.871-2.904-18.523-5.43-27.811-6.47-5.01-.56-10.027-.881-15.061-1.1Zm-90.114-65.97c-6.044-6.49-18.052.226-15.15 8.82 6.826 20.219 17.696 38.662 34.66 51.948 15.946 12.49 34.961 20.601 55.439 18.87a1.217 1.217 0 0 0 .416-.111l-1.765 2.394c-13.854 18.741-28.47 37.223-46.087 52.541-35.893 31.211-84.763 48.045-131.953 36.07-37.128-9.421-69.838-38.78-79.458-76.196 1.379.618 3.018.829 4.817.438 7.697-1.671 15.317-9.766 20.281-15.57 5.37-6.279 9.564-13.059 12.638-20.723 5.626-14.026 7.43-32.085-.252-45.672-.948-1.675-3.134-.736-3.32.899l-.292 2.552c-1.481 12.734-3.326 25.051-9.33 36.659-2.938 5.68-6.46 11.224-10.747 15.981-2.294 2.545-4.781 4.977-7.466 7.111-2.616 2.079-5.783 3.583-8.128 5.968l-.43.458-.012-.082c-.593-5.041-4.128-7.262-7.587-7.123-3.347.135-7.279 1.608-8.802 2.314l-.144.068c-23.352 11.21-44.859 25.821-65.099 42.031-41.856 33.524-73.217 77.349-88.412 128.957-7.458 25.329-11.737 51.428-16.254 77.405l-2.782 15.917c-4.216 23.981-8.926 48.435-18.444 70.743-2.462 5.771-.564 11.183 5.473 13.452 7.538 2.834 15.104 5.578 22.682 8.288-3.721 15.963-5.99 32.479-8.778 48.519-5.926 34.1-13.187 67.98-19.413 102.04-3.183 17.41-6.055 34.88-9.235 52.29-1.531 8.39-3.129 16.76-4.683 25.14-.837 4.52-1.596 9.06-2.395 13.58l-.139.76c-.458 2.38-1.033 4.85-.376 7.24.749 2.73 2.876 4.65 4.775 6.61 1.563 1.61 3.822 1.62 5.737.74l.63-.29c3.42-1.6 6.1-3.2 7.313-7.06.768-2.44 1.045-5.19 1.547-7.71.963-4.82 1.876-9.66 2.738-14.5a3535.65 3535.65 0 0 0 5.052-29.1l1.536-9.09c5.27-31.33 10.275-62.85 12.805-94.51 1.123-14.05 2.312-28.08 3.513-42.12l.901-10.524c1.14-13.325 2.533-26.987 2.73-40.492l4.532 1.609 22.11 7.816c5.482 1.937 12.462 5.907 18.362 5.185 2.888-.354 5.09-1.263 6.79-2.915-2.036 28.733-4.792 57.421-8.465 85.951-3.342 25.97-7.047 51.9-11.423 77.71-2.167 12.78-4.394 25.55-6.813 38.29-1.209 6.37-2.457 12.73-3.743 19.08-.641 3.17-1.404 6.35-1.904 9.54-.572 3.66.436 5.91 2.481 8.93 1.679 2.47 5.038 3.74 7.761 2.03 3.606-2.26 5.487-4.22 6.548-8.34.964-3.75 1.55-7.65 2.296-11.44 1.377-7 2.708-14.01 3.993-21.02 2.687-14.68 5.164-29.38 7.376-44.14 7.795-51.97 12.741-104.37 15.239-156.859 1.233-25.897 1.614-51.817 1.395-77.741-.112-13.288-.546-26.614-1.486-39.869-.952-13.417-2.932-26.566-4.7-39.854-.062-.468-.722-.495-.75 0-.837 14.898-2.149 29.779-2.792 44.716-.614 14.253-.883 28.528-1.371 42.786a1973.237 1973.237 0 0 1-2.707 56.235c-2.131-2.331-5.343-3.675-8.557-3.15-4.656-.977-9.668-3.42-14.107-4.903l-16.734-5.59c-8.797-2.938-17.594-5.856-26.422-8.686 7.893-26.553 13.3-53.502 17.917-80.844l2.059-12.297c4.075-24.204 8.47-48.419 15.852-71.858 7.761-24.642 19.375-47.552 34.782-68.299 15.187-20.447 33.664-38.451 52.688-55.291 16.287-14.416 33.71-27.432 50.322-41.452a9.585 9.585 0 0 0-.058 3.076c3.532 25.85 17.017 49.923 35.81 67.828 37.755 35.971 93.642 43.434 141.964 26.566 46.743-16.316 88.07-54.958 102.671-102.775.25-.818-.846-1.143-1.286-.542-.81 1.11-1.624 2.22-2.439 3.33.055-.441-.174-.921-.718-1.131-17.036-6.578-33.765-15.907-46.535-29.104-6.224-6.433-11.656-13.721-15.944-21.581-2.054-3.765-3.899-7.664-5.371-11.693l-.374-1.042c-1.784-5.047-3.275-10.193-6.999-14.192Z" fill="#000"/></g><g fill-rule="evenodd" clip-rule="evenodd"><path d="M306.469 137.26c-56.661 0-115.267 44.012-136.037 72.097-17.462 23.613-26.864 130.388-26.864 202.548 0 15.092-8.31 43.541-5.885 57.977 8.887 52.899 47.608 97.264 124.244 97.264 76.637 0 131.584-30.442 188.546-112.173 27.638 0 41.033-21.24 41.227-54.759.195-33.519-26.678-45.714-26.678-45.714s9.582-132.279-14.549-166.718c-24.13-34.44-87.343-50.522-144.004-50.522Z" fill="rgba(255, 219, 180, 1)"/><path d="M330.314 118.556c-35.774-3.63-70.83-.58-106.085 5.73-2.695.49-4.221 2.26-4.79 4.39-16.605.76-33.23 1.98-49.814 2.89-6.018.33-9.43 6.29-6.686 11.67a103.764 103.983 0 0 0 1.697 3.15l-.728-.24c-4.988-1.604-10.378-2.395-15.239.15-6.187 3.24-8.612 10.39-7.245 16.97.35 1.68.938 3.29 1.606 4.861a20.642 20.642 0 0 0-4.081.12c-7.225.96-12.593 6.51-12.973 13.9-.558 11.159 6.616 22.48 15.068 30.469-1.226 2.531-1.696 5.511-1.186 8.531 1.018 5.97 5.407 9.545 10.494 11.877-2.122 6.751-3.125 13.809-2.533 21.022.198 2.408 2.3 4.397 4.518 4.885-8.269 22.814-12.454 47.308-15.464 71.175-2.145 16.981-3.203 34.061-3.332 51.17a462.25 463.228 0 0 0 .388 23.183l.13 2.897c.4 8.351.42 17.12 1.916 25.381-5.109 8.709-7.165 19.52-8.033 29.279-1.078 12.08.629 24.54 4.432 36.031 14.35 43.419 57.657 70.819 101.156 77.94 40.264 6.59 86.855-2.28 110.386-38.931.369-.58-.42-1.059-.879-.679-16.834 13.719-36.362 19.839-57.578 22.819-36.682 5.141-77.914-3.58-107.352-26.699-14.13-11.1-24.318-27.26-28.8-44.651-2.285-8.889-3.073-18.16-2.174-27.309.918-9.28 5.018-17.2 7.603-25.97.868-2.961-.05-5.711-1.857-7.67-.507-7.121-1.706-14.301-2.164-21.4a490.647 490.647 0 0 1-.929-24.221c-.21-16.76.489-33.55 1.896-50.239 2.575-30.561 9.41-60.38 13.422-90.681 1.484 1.335 3.614 1.883 5.845.717l.232-.127 1.217-.699c.07 0 .15.01.22.019 8.332.811 16.974-.349 24.957-2.84 8.353-2.599 16.106-6.599 23.032-11.929 1.316 6.689 1.866 13.449 1.875 20.269.01 4.26 4.51 6.471 8.083 4.651a337.137 337.85 0 0 0 45.324-27.79c1.678 8.61 3.353 17.219 5.04 25.839.648 3.321 4.87 4.661 7.575 3.081 10.756-6.271 20.046-14.48 27.61-24.241a1988.01 1992.213 0 0 0 4.55 8.675l2.296 4.325c2.265 4.25 5.299 8.951 10.258 10.31 5.249 1.44 9.63-1.969 11.396-6.73.539-1.479 1.038-3 1.497-4.53 4.471 10.231 9.52 20.231 15.228 29.771 8.562 14.309 18.84 27.059 29.088 40.139 3.114 3.971 8.442.18 8.871-3.679.25-2.27.46-4.55.64-6.821 5.971 12.076 12.202 24.039 18.99 35.655l-.971 3.817c-2.801 11.278-5.127 22.636-7.656 33.974-.816 3.658 1.124 8.888 5.389 9.511 5.095.744 9.916 3.353 15.135 1.558 5.69-1.958 6.815-6.887 9.502-11.559a18.835 18.875 0 0 1 1.83-2.598l.17.222c.42.551 1.417-.049 1.168-.679l-.292-.728c2.308-2.455 5.069-4.503 7.61-6.706 6.035-1.019 12.822.097 16.982 2.554 9.47 5.599 13.82 17.139 13.91 27.75.109 12.42-3.733 26.38-10.22 37-2.853 4.67-6.765 8.889-11.934 10.96-5.13 2.059-10.687 1.42-15.906 3.359-3.453 1.291-5.579 5.131-3.493 8.61.14.241.3.46.45.691l-1.553 2.064c-1.067 1.43-2.18 2.962-3.218 4.555-2.654 3.061-5.448 6.011-8.153 9.021-4.998 5.549-9.849 11.25-14.767 16.879-4.642 5.311-9.551 10.3-14.61 15.21-4.78 4.651-10.748 8.56-15.138 13.521-4.27 4.84-5.429 13.289 1.597 16.09 7.773 3.106 14.654-4.174 19.886-9.028l.22-.203c9.592-8.845 18.254-18.953 25.133-30.082 6.813 4.648 16.668 5.092 23.453.445 3.57-2.445 6.31-6.554 7.64-11.024 1.256.282 2.51.447 3.733.428.63.366 1.262.722 1.9 1.054 5.06 2.639 11.277 1.46 13.592-4.151 2.108-5.094-.065-10.879-1.964-15.786l-.39-1.014c-1.079-2.799-2.266-5.849-3.743-8.719 4.111-3.1 7.624-6.951 10.598-11.33 9.988-14.75 14.978-36.321 12.773-53.92-1.328-10.62-6.307-21.62-14.46-28.781l.3-.78c2.285-5.809 4.36-11.64 5.707-17.779 1.577-7.18 2.346-14.62 3.044-21.93 1.477-15.44 1.078-31.23-.888-46.61-3.692-28.95-13.052-57.37-29.667-81.46 4.71-5.651 8.442-12.301 6.496-19.95-.888-3.511-2.914-6.84-5.967-8.851-1.687-1.11-3.693-1.28-5.38-2.2l-.506-.279c-.741-.433-.175-.387.267-2.4 1.747-8.041.3-15.81-8.532-18.48-8.312-2.51-16.175 2.82-21.095 9.17-12.873-9.151-29.837-13.94-44.755-18.01-16.964-4.611-34.367-7.49-51.84-9.271Zm139.046 269.7c.06-6.55-6.137-10.59-12.234-9.519-4.095.714-7.511 3.163-10.718 5.694l-1.565 1.24c-3.906 3.073-8.39 6.386-10.718 10.736-3.413 6.42 3.8 15.059 10.537 10.559 4.62-3.103 7.582-8.075 10.613-12.693l.313-.477c1.377-2.07 2.585-4.27 4.472-5.93l.408-.358c.62-.529 1.286-1.013 2.087-1.242 1.545-.445 4.407.178 5.089 2.022l.06.188c.25.931 1.646.73 1.656-.22Z" fill="#000"/></g><path fill-rule="evenodd" clip-rule="evenodd" d="M242.413 488.927c6.723-2.743 12.721-7.317 17.106-13.161 1.524-2.031 1.92-4.176 1.6-6.138-.36-2.207-1.665-4.206-3.445-5.547-1.786-1.346-4.019-2.009-6.178-1.671-1.877.294-3.744 1.321-5.223 3.452l-.308.426c-2.607 3.527-6.005 6.421-9.875 8.286-3.731 1.798-7.904 2.637-12.222 2.149-8.224-.929-13.892-5.377-19.917-11.416a159.983 159.983 0 0 1-2.245-2.348 3.53 3.53 0 0 0-1.863-1.435 4.01 4.01 0 0 0-2.569.038 4.07 4.07 0 0 0-2.021 1.533 3.741 3.741 0 0 0-.639 2.479c.551 6.259 3.824 11.845 8.472 16.231 5.162 4.872 12.005 8.242 18.448 9.424 7.098 1.302 14.33.369 20.879-2.302Zm-24.227-96.56c-7.552 4.59-19.058 15.293-10.934 26.673 9.562 10.033 23.33-1.471 30.114-6.674 6.291-4.032 13.359 6.338 7.522 11.047-49.024 36.295-68.919-29.846-30.522-36.443 4.228-.727 5.798 3.977 3.82 5.397Zm87.85-42.221c-.834-10.356-16.606-12.708-18.175-2.46-1.405 9.18.249 17.613 4.384 25.878 3.95 7.896 13.881 4.213 14.632-2.977 1.007-9.638-.321-13.998-.84-20.441Zm-120.063-4.585c-2.199-2.88-5.374-4.846-9.178-3.735-11.885 3.474-8.382 20.346-4.208 28.559 2.268 4.46 9.599 5.591 12.912 1.664 5.4-6.404 7.986-19.193 1.121-25.5a8.59 8.59 0 0 0-.647-.988Zm106.44-40.73-1.878-.33c-5.808-1.004-13.029-1.969-17.138 2.7-2.179 2.477-2.929 7.078 0 9.449 5.152 4.17 10.848 2.553 17.022 2.906a67.731 67.731 0 0 1 14.88 2.535c10.751 3.074 19.511 8.684 28.694 14.844 1.205.808 2.435-.734 1.86-1.86-5.3-10.383-15.574-18.913-25.864-24.111-5.492-2.776-11.502-5.078-17.578-6.133Zm-95.606-4.652-1.437.294c-15.637 3.269-35.953 9.798-43.358 25.158-.283 2.172.016 2.637.258 2.941l.081.102c.199.26.359.617 1.3.913a36.069 36.069 0 0 0 .792-.198c3.394-.89 6.08-2.115 8.68-3.387l2.819-1.389c3.27-1.603 6.57-3.148 10.066-4.29 7.462-2.433 15.138-4.148 22.932-5.063 1.69-.199 3.316-.769 4.6-1.746a6.908 6.908 0 0 0 2.573-3.918c.55-2.21.392-3.882-.793-5.875a7.448 7.448 0 0 0-3.631-3.13c-1.493-.607-3.192-.75-4.882-.412Z" fill="#000"/><path fill-rule="evenodd" clip-rule="evenodd" d="M163.191 318c-23.472 0-36.867 5.048-41.775 5.44l-.148.011c-2.041.13-3.873.302-5.794 1.045-7.066 2.72-8.217 10.131-4.093 14.802.289 9.663-.982 20.955 1.199 30.65 2.69 40.87 21.911 47.768 32.836 50.285 5.486 1.264 11.987 1.767 17.813.433 9.94-.371 19.767-3.482 28.174-8.901 11.709-7.552 20.406-19.16 23.229-32.935 1.337-6.567 1.962-13.401 1.234-20.076l-.108-.92c3.806-1.82 8.217-2.164 12.763-2.325 2.172-.077 4.313-.147 6.392-.054a67.52 67.52 0 0 1 6.056.94c2.2.664 4.278 1.76 6.196 3.495l.132 2.532a130.272 130.272 0 0 0 2.472 18.878c1.892 9.158 4.934 17.904 11.409 24.399a36.675 36.675 0 0 0 8.196 8.726c11.961 9.209 28.211 12.59 43.124 11.317 30.277-2.584 47.778-26.619 51.811-36.892l.241-.622c2.913-7.638 5.235-17.547 14.441-19.188l1.958-.352c4.201-.789 8.078-1.887 10.541-5.985 1.08-1.79 1.635-3.79 1.771-5.831 1.438.11 2.873.216 4.303.318 11.408 2.413 79.836 4.458 85.298 4.458 0 0 10.499 4.42 14.931.995 3.073-2.38 4.084-5.553 2.392-9.148-2.552-5.409-14.325-8.662-19.553-9.692 0 0-84.365.7-90.437-.45-3.757-3.875-10.477-3.345-16.093-3.957-4.648-3.315-11.151-5.535-16.288-7.02a178.912 178.912 0 0 0-3.092-1.143c-9.417-3.353-19.206-5.13-29.144-6.084-10.248-.974-20.526-.533-30.714.863-4.293.582-8.546 1.335-12.77 2.32-7.562.997-15.08 2.64-22.645 4.587l-1.514.394c-7.966 2.088-16.152 3.895-24.399 2.48-6.713-1.146-13.17-3.73-19.36-6.524l-.805-.365C199.76 322.689 178.504 318 163.191 318Zm119.722 22.722c5.022-1.104 7.167 6.639 2.129 7.746-3.568.784-6.591 2.583-8.634 5.631l-.215.332c-2.741 4.362-9.673.335-6.913-4.055 3.106-4.94 7.932-8.4 13.633-9.654Zm-147.086-4.8c1.77-1.247 4.449-.322 5.477 1.44 1.131 1.941.39 4.102-1.268 5.371l-.169.124c-1.521 1.072-3.002 2.993-3.188 4.962l-.017.246c-.199 5.153-8.206 5.179-8.006 0 .195-5.065 3.129-9.298 7.171-12.143Z" fill="#000"/></g></svg>